<?xml version="1.0" encoding="UTF-8"?>
<svg version="1.1" xmlns="http://www.w3.org/2000/svg" width="645" height="727">
<path d="M0 0 C1.91332433 -0.00076472 3.8266485 -0.00284012 5.73997021 -0.00610065 C10.90416957 -0.01112271 16.06816766 0.0023732 21.23233485 0.01947093 C26.74050216 0.03451838 32.24866705 0.03235549 37.7568512 0.03248596 C48.33253438 0.03558126 58.90812281 0.05502621 69.48377198 0.08109063 C77.96691048 0.10177016 86.45004029 0.11654154 94.93319702 0.12728882 C125.32657892 0.16633375 155.71975649 0.23718438 186.11299896 0.33687592 C190.86466328 0.35242806 195.61632961 0.3670859 200.36799824 0.38125193 C219.10081039 0.43718223 237.83312825 0.5163717 256.56559753 0.64692688 C259.93495789 0.6688083 263.30431247 0.68591439 266.67370605 0.70178223 C271.81069203 0.72698112 276.94734283 0.76679058 282.0841198 0.81937981 C283.87376137 0.83577676 285.66345241 0.8476629 287.45315742 0.85412788 C304.43059828 0.92272769 318.92571374 2.94843714 333.45605469 12.54394531 C346.39117049 26.08069441 348.3113656 43.54600882 348.27636719 61.46582031 C348.2777771 62.57505356 348.27918701 63.6842868 348.28063965 64.82713318 C348.28281619 68.58693378 348.27632883 72.3466527 348.26855469 76.10644531 C348.26686816 77.44886257 348.26530345 78.79127998 348.26385498 80.13369751 C348.02376305 276.58787744 348.02376305 276.58787744 335.14355469 408.60644531 C334.96413834 410.13418076 334.96413834 410.13418076 334.78109741 411.69277954 C331.79118976 436.92671737 328.51128492 464.18003103 307.73339844 481.51269531 C298.77087434 487.89325546 289.42520728 491.17052682 278.83496094 493.53222656 C275.2131274 494.34091109 271.70051284 495.30542155 268.14355469 496.35644531 C281.38435003 516.17626084 297.16759172 527.64539187 319.89355469 534.41894531 C323.69489177 535.63785231 325.0224162 536.23255368 327.89355469 539.16894531 C329.36173163 542.91279651 329.65129424 545.36706311 329.14355469 549.35644531 C327.44349325 553.09658047 325.63916075 555.24359481 322.14355469 557.35644531 C319.10068832 558.27697632 316.01319988 558.88058915 312.89355469 559.48144531 C312.07242187 559.6503125 311.25128906 559.81917969 310.40527344 559.99316406 C276.86657379 566.74342532 241.37518762 562.7609967 212.14355469 544.35644531 C198.99789331 535.53857369 184.16865624 524.60053716 175.68678284 511.02479553 C172.61823776 506.24881553 172.61823776 506.24881553 167.77853394 503.64474487 C164.85939172 503.50364273 162.082788 503.66067213 159.17089844 503.91503906 C157.46910934 504.00106888 157.46910934 504.00106888 155.73294067 504.08883667 C152.528555 504.25297701 149.32874508 504.45524395 146.12721634 504.66659927 C139.54211267 505.0764334 132.9465038 505.31378103 126.35449219 505.58300781 C125.53926401 505.61766207 124.72403584 505.65231632 123.88410378 505.68802071 C98.67209906 506.74567362 73.43781776 506.66467813 48.20808452 506.66510338 C43.55598198 506.66606144 38.90399373 506.67798583 34.25192261 506.69454956 C27.87040802 506.71711697 21.48906095 506.72422087 15.10750961 506.71939468 C12.73679952 506.71961225 10.36608417 506.72452833 7.99539566 506.73464584 C-37.27314288 506.90642722 -37.27314288 506.90642722 -53.31738281 491.27832031 C-71.92605841 469.86402901 -73.06451125 437.75557508 -76.23144531 410.91894531 C-76.45255478 409.0643721 -76.45255478 409.0643721 -76.6781311 407.17233276 C-83.51323373 349.64305771 -88.36459361 291.91780848 -91.04394531 234.04394531 C-91.08096558 233.25267242 -91.11798584 232.46139954 -91.15612793 231.64614868 C-92.5337573 201.50831639 -93.02936396 171.35100549 -92.98681641 141.18481445 C-92.98107669 137.08481358 -92.98455798 132.98487696 -92.99023819 128.88487816 C-93.0086584 113.37257346 -92.9470032 97.86643889 -92.47363281 82.36035156 C-92.44326935 81.24039291 -92.41290588 80.12043427 -92.38162231 78.96653748 C-91.98414089 67.84173063 -90.84039136 56.72755136 -87.16894531 46.16894531 C-86.90621826 45.40702881 -86.64349121 44.6451123 -86.37280273 43.86010742 C-81.06795149 29.13621544 -70.91692093 17.28218833 -57.06347656 9.84863281 C-38.88451647 1.39021289 -19.77093164 -0.10790787 0 0 Z " fill="#CD7886" transform="translate(190.8564453125,81.6435546875)"/>
<path d="M0 0 C7.54498386 -0.02269284 15.08996041 -0.04091769 22.63497066 -0.05181217 C26.13808885 -0.05703989 29.64118285 -0.0641355 33.14428711 -0.07543945 C37.16780841 -0.08834206 41.19130414 -0.09322912 45.21484375 -0.09765625 C46.47836166 -0.10281754 47.74187958 -0.10797882 49.04368591 -0.11329651 C50.204814 -0.11337204 51.36594208 -0.11344757 52.56225586 -0.11352539 C54.1044706 -0.11685631 54.1044706 -0.11685631 55.67784119 -0.12025452 C58 0 58 0 59 1 C59.41605433 3.08253118 59.77373302 5.17672722 60.10961914 7.27368164 C60.21802753 7.94290335 60.32643593 8.61212505 60.43812943 9.30162621 C60.67830198 10.78774556 60.91654933 12.27417692 61.15319252 13.76086235 C61.54598033 16.22814736 61.94371595 18.6945935 62.34257507 21.16090393 C62.93578249 24.83223821 63.52683703 28.50391026 64.11633301 32.17584229 C65.7700492 42.47202382 67.44108341 52.7654002 69.11328125 63.05859375 C69.29661892 64.18766144 69.47995659 65.31672913 69.66884995 66.48001099 C75.12601893 100.06711739 80.74122132 133.62811678 86.34376287 167.19121313 C86.88499867 170.43378379 87.42609642 173.67637748 87.96718878 176.91897207 C90.74707802 193.57793497 93.52867874 210.23661121 96.31210041 226.89498425 C97.87723753 236.26290607 99.43987953 245.63124146 101 255 C101.09624507 254.41222212 101.19249014 253.82444424 101.29165173 253.2188549 C103.69885697 238.51831081 106.10738513 223.81798396 108.51711273 209.11785316 C109.72232576 201.76540716 110.92705119 194.41288181 112.13070679 187.06018066 C113.57286744 178.250853 115.0161279 169.44170612 116.4609375 160.6328125 C116.64002305 159.54092684 116.64002305 159.54092684 116.82272649 158.42698288 C119.77722308 140.4167372 122.75363436 122.41058477 125.80402946 104.41627884 C126.27966517 101.61012971 126.75419922 98.80379645 127.22840881 95.99740601 C128.49119465 88.52832961 129.75705487 81.05992535 131.04698944 73.59548378 C131.55358036 70.65299334 132.0523466 67.70921467 132.54909897 64.76504898 C132.87715251 62.83653848 133.2154077 60.90977152 133.55422974 58.98312378 C135.20927648 49.11519538 135.78657639 39.65035617 133.90625 29.765625 C133.56787109 27.91517578 133.56787109 27.91517578 133.22265625 26.02734375 C132.98417969 24.78082031 132.74570312 23.53429687 132.5 22.25 C132.02485336 19.73557534 131.55591936 17.2199673 131.09375 14.703125 C130.88427734 13.60645508 130.67480469 12.50978516 130.45898438 11.37988281 C130 8 130 8 130 0 C148.81 0 167.62 0 187 0 C188.2780717 4.47325095 189.3448031 8.4508339 190.08866882 12.96870422 C190.37576265 14.69357606 190.37576265 14.69357606 190.66865635 16.4532938 C190.87169848 17.6988753 191.07474062 18.94445681 191.28393555 20.2277832 C191.50611297 21.57215854 191.72865472 22.9164737 191.9515295 24.2607336 C192.55741356 27.92138671 193.15824416 31.58285357 193.75824213 35.24447536 C194.3987112 39.14727278 195.04402127 43.04926971 195.68881226 46.95135498 C196.78911886 53.6139653 197.88659288 60.27703676 198.98196411 66.94046021 C200.68502747 77.30062846 202.39259209 87.66005151 204.10131836 98.01928711 C204.31269123 99.30078209 204.31269123 99.30078209 204.52833426 100.60816586 C205.09666351 104.05376696 205.66499462 107.49936776 206.23338372 110.94495898 C207.08364109 116.09943013 207.93341622 121.25398052 208.78284961 126.40858752 C212.1576639 146.88657303 215.55430957 167.36061749 218.9921875 187.828125 C219.35493758 189.99004058 219.71765504 192.15196163 220.08033752 194.31388855 C221.5422822 203.02538971 223.00658065 211.73646811 224.48099899 220.44586754 C225.05773704 223.85838758 225.63065372 227.27154083 226.2025032 230.68488312 C226.46086713 232.22156818 226.7209554 233.75796458 226.98298264 235.29402924 C227.33301472 237.34642536 227.67711608 239.39973129 228.01977539 241.45336914 C228.30637779 243.14847374 228.30637779 243.14847374 228.59877014 244.87782288 C228.99447311 247.95699244 229.07331812 250.89940154 229 254 C229.66 254 230.32 254 231 254 C231.04961034 253.28153397 231.09922068 252.56306793 231.15033436 251.8228302 C231.72261019 244.22716 232.71182118 236.77566719 233.94604492 229.26171875 C234.14137817 228.05029205 234.33671143 226.83886536 234.53796387 225.59072876 C235.17985959 221.62204889 235.82927324 217.65466091 236.48046875 213.6875 C236.70606051 212.30961042 236.93159323 210.93171118 237.15706825 209.55380249 C238.21677162 203.08168948 239.28107626 196.61035402 240.35110015 190.13993931 C241.57868897 182.71573558 242.79009286 175.28912399 243.98791236 167.86006069 C244.92028354 162.08412707 245.86780968 156.31080188 246.82644731 150.53917027 C247.39623062 147.10646535 247.95972433 143.67302409 248.50707054 140.23666382 C249.11860092 136.40014881 249.76156127 132.56924718 250.40698242 128.73828125 C250.58020523 127.62208405 250.75342804 126.50588684 250.93190002 125.35586548 C252.70518349 115.11878111 256.64148105 103.64822425 265.3671875 97.26953125 C276.34568201 90.89106014 276.34568201 90.89106014 283.1796875 90.9609375 C284.44039063 90.97382813 285.70109375 90.98671875 287 91 C284.77823752 104.79973201 282.55229294 118.59878438 280.3219595 132.39713383 C279.28567898 138.80898289 278.25058235 145.22101771 277.21850586 151.63354492 C269.31614518 200.72292098 269.31614518 200.72292098 265.01484108 224.2558918 C261.12745411 245.53691685 257.65997795 266.8877871 254.16064453 288.2354126 C253.4348998 292.6586018 252.70641722 297.08133829 251.97786903 301.50406647 C251.10140415 306.82545845 250.22639533 312.14708951 249.3515625 317.46875 C249.10571852 318.96324425 249.10571852 318.96324425 248.85490799 320.4879303 C248.39286587 323.29846305 247.9318556 326.10916299 247.47119141 328.91992188 C247.33617218 329.74050583 247.20115295 330.56108978 247.06204224 331.40653992 C246.93615723 332.17597427 246.81027222 332.94540863 246.68057251 333.73815918 C246.57259653 334.39636406 246.46462055 335.05456894 246.35337257 335.73271942 C245.87261156 338.81733945 245.44149772 341.90951596 245 345 C225.86 345 206.72 345 187 345 C183.1875 322.4375 183.1875 322.4375 182.00463867 315.41577148 C181.68425786 313.52584909 181.36371153 311.63595475 181.04296875 309.74609375 C180.88558228 308.8080188 180.7281958 307.86994385 180.56604004 306.90344238 C179.65112684 301.52653637 178.64058013 296.17998689 177.5480957 290.83618164 C176.02732848 283.30754388 174.75806375 275.75273573 173.55215454 268.16802979 C173.17581275 265.80150791 172.79572086 263.4356123 172.41479492 261.06982422 C171.47045797 255.20026939 170.53224008 249.32973999 169.59387207 243.45922852 C168.79653618 238.47257795 167.99678208 233.48632614 167.19400024 228.50054932 C166.82451053 226.19978792 166.45842372 223.89850339 166.0925293 221.59716797 C164.80749771 213.57592869 163.35026249 205.61691231 161.72323608 197.65621948 C160.51046177 191.52520753 159.517148 185.36046653 158.51953125 179.19140625 C158.29985019 177.8451716 158.07993046 176.49897588 157.85978699 175.15281677 C157.29029386 171.66650855 156.72397 168.17969329 156.15838623 164.69274902 C155.57696783 161.1119011 154.99244094 157.53156067 154.40820312 153.95117188 C153.26915361 146.96793172 152.13346333 139.98414923 151 133 C143.22612654 176.45548629 143.22612654 176.45548629 136.51879883 220.08325195 C135.56746456 226.76858159 134.37317128 233.38477719 133.0859375 240.01171875 C131.21455052 249.66183471 129.60975692 259.33698309 128.10577393 269.05038452 C125.32163941 287.01969162 122.34929875 304.95170943 119.22143555 322.86425781 C119.07964371 323.68189102 118.93785187 324.49952423 118.79176331 325.3419342 C118.53083872 326.84596225 118.26774682 328.34961702 118.0018158 329.85276794 C117.1261091 334.90893207 116.56949217 339.87457045 116 345 C96.86 345 77.72 345 58 345 C56.77529477 340.1011791 55.66955729 335.50673436 54.86422729 330.57026672 C54.66268539 329.34535019 54.46114349 328.12043365 54.25349426 326.85839844 C54.03726572 325.52320263 53.82109644 324.18799723 53.60498047 322.8527832 C53.37166009 321.42704999 53.13803442 320.00136672 52.90412903 318.57572937 C52.40188606 315.51073522 51.90172136 312.44541183 51.40316391 309.37981606 C50.60635945 304.48089459 49.8043982 299.58282542 49.0017395 294.68486023 C47.28886253 284.22805343 45.58172732 273.77031198 43.875 263.3125 C41.64711401 249.66212337 39.41668631 236.01216773 37.1796875 222.36328125 C37.0431191 221.52970384 36.9065507 220.69612643 36.76584387 219.83728909 C33.44833093 199.59264916 30.06945878 179.36521579 26.41194916 159.17870712 C21.67173359 132.98544479 17.46754402 106.69928027 13.18383396 80.42831832 C11.87531355 72.40423511 10.56263027 64.3808336 9.25 56.35742188 C7.90662131 48.14543854 6.56360658 39.93339699 5.22317505 31.72093201 C5.02097855 30.48235443 4.81878204 29.24377686 4.61045837 27.96766663 C4.23768726 25.6838761 3.86507292 23.40005998 3.49266052 21.11621094 C2.34327009 14.07497505 1.17712967 7.03665114 0 0 Z " fill="#FEFEFE" transform="translate(163,166)"/>
<path d="M0 0 C5.23719333 3.88181203 9.75470957 8.85794004 10.88671875 15.3984375 C12.28580133 30.27756974 6.63652343 42.62933306 -2.67578125 53.9609375 C-7.97288785 59.70886169 -16.22487709 67.17305433 -24.11328125 68.3984375 C-27.11328125 64.0784375 -27.11328125 64.0784375 -27.11328125 61.3359375 C-26.11328125 59.3984375 -26.11328125 59.3984375 -23.7890625 57.73046875 C-20.50828502 54.87116341 -19.09473804 52.04524431 -17.30078125 48.1484375 C-16.98947266 47.49875 -16.67816406 46.8490625 -16.35742188 46.1796875 C-15.59822679 44.59121779 -14.85417606 42.99552487 -14.11328125 41.3984375 C-14.84546875 41.28371094 -15.57765625 41.16898438 -16.33203125 41.05078125 C-21.86192778 39.75374091 -26.40963217 36.68439619 -29.8046875 32.12890625 C-33.0171502 26.31718599 -34.24781892 20.97875596 -33.11328125 14.3984375 C-30.91297723 6.84087152 -25.31181201 1.93965348 -18.73828125 -2.0390625 C-12.11857304 -3.4575714 -5.96970634 -3.41472046 0 0 Z " fill="#FEFDFD" transform="translate(423.11328125,161.6015625)"/>
<path d="M0 0 C5.42558434 3.10347826 9.37569536 7.75133025 12.25 13.25 C14.59498394 26.79879612 11.22512941 38.12853774 3.8125 49.5 C-1.97279726 57.2838545 -12.09048115 67.91088081 -22.1875 69.5 C-25.1875 63.75 -25.1875 63.75 -25.1875 61.5 C-24.300625 60.819375 -23.41375 60.13875 -22.5 59.4375 C-17.53436877 55.48382205 -14.48842121 49.66888447 -13.1875 43.5 C-13.92355469 43.14808594 -14.65960938 42.79617187 -15.41796875 42.43359375 C-23.05152011 38.57144029 -27.03324728 35.32142275 -30.5 27.5625 C-32.17956799 20.08078803 -31.30884833 15.43818763 -27.67578125 8.765625 C-21.53809655 -0.57783202 -10.38620141 -4.53766081 0 0 Z " fill="#FEFDFD" transform="translate(471.1875,160.5)"/>
</svg>